<?xml version="1.0" encoding="UTF-8"?>
<svg version="1.1" xmlns="http://www.w3.org/2000/svg" width="225" height="225">
<path d="M0 0 C0.791147 -0.0049649 1.58229401 -0.00992981 2.39741516 -0.01504517 C5.00176889 -0.02958837 7.60606164 -0.03645683 10.21044922 -0.04199219 C11.10567165 -0.04481956 12.00089409 -0.04764694 12.92324448 -0.05056 C17.66383914 -0.06552351 22.4044036 -0.07476998 27.14501953 -0.07910156 C32.01342445 -0.08457179 36.88154767 -0.10857734 41.74986458 -0.13707352 C45.51796239 -0.15580971 49.28599394 -0.16091138 53.05413437 -0.16243744 C54.84727386 -0.16544143 56.64041282 -0.17339261 58.43350601 -0.18662262 C85.50964587 -0.37208789 85.50964587 -0.37208789 94.89013672 8.16113281 C102.56072294 17.38102556 105.03339335 25.44855732 105.05126953 37.36279297 C105.05623444 38.16369354 105.06119934 38.96459412 105.0663147 39.7897644 C105.08085958 42.42658363 105.08772662 45.06334264 105.09326172 47.70019531 C105.09750278 49.05957781 105.09750278 49.05957781 105.10182953 50.44642258 C105.11679368 55.2453719 105.12603977 60.04429139 105.13037109 64.84326172 C105.13584161 69.77219927 105.1598476 74.70085862 105.18834305 79.62970924 C105.20707703 83.44413011 105.21218079 87.2584855 105.21370697 91.07294846 C105.21671142 92.88841644 105.22466422 94.7038839 105.23789215 96.51930618 C105.4210018 123.58854493 105.4210018 123.58854493 96.89013672 133.16113281 C96.23013672 133.16113281 95.57013672 133.16113281 94.89013672 133.16113281 C94.89013672 133.82113281 94.89013672 134.48113281 94.89013672 135.16113281 C93.05419922 136.59863281 93.05419922 136.59863281 90.51513672 138.16113281 C89.70302734 138.67675781 88.89091797 139.19238281 88.05419922 139.72363281 C78.05087398 144.26835341 66.92563697 143.47154694 56.17919922 143.46191406 C54.36135766 143.46580909 52.543517 143.47014541 50.72567749 143.47489929 C46.92825359 143.48232987 43.13092271 143.4820933 39.33349609 143.47680664 C34.49656853 143.47101635 29.66002442 143.48794789 24.82316017 143.51115131 C21.07221293 143.52597007 17.32135632 143.52674934 13.57038498 143.52364159 C11.78841772 143.52415072 10.00644484 143.52931066 8.22450638 143.53945351 C-5.82048617 143.60960018 -19.32328825 143.39110522 -30.10986328 133.16113281 C-36.6916343 124.89978122 -38.41941243 115.95980831 -38.38452148 105.61889648 C-38.38963242 104.81755783 -38.39474335 104.01621918 -38.40000916 103.19059753 C-38.41378548 100.57002056 -38.41295725 97.9497102 -38.41064453 95.32910156 C-38.41453847 93.48741053 -38.41887457 91.64572038 -38.42362976 89.80403137 C-38.43106664 85.95355309 -38.43081946 82.10316653 -38.42553711 78.25268555 C-38.41975072 73.34734995 -38.43666582 68.44239296 -38.45988178 63.53711987 C-38.47470034 59.73555856 -38.47547975 55.93408668 -38.47237206 52.1325016 C-38.47288135 50.32541467 -38.47804452 48.51832221 -38.48818398 46.71126366 C-38.56068194 31.9834101 -38.19820159 19.52681478 -27.44580078 8.44628906 C-19.62731028 1.14546118 -10.39075103 0.0157885 0 0 Z M36.89013672 24.16113281 C36.68001953 25.44503906 36.46990234 26.72894531 36.25341797 28.05175781 C35.75195312 30.24121094 35.75195312 30.24121094 34.89013672 32.16113281 C32.04996714 33.56072803 30.08796819 34.27314627 27.07763672 34.91113281 C20.21806357 36.53756554 16.03758111 38.29787362 11.64013672 44.16113281 C8.77925116 49.06550806 8.30651775 53.49472319 8.89013672 59.16113281 C11.29644098 66.63334079 15.76525444 70.85732522 22.30419922 74.84082031 C26.27137219 76.86635576 30.41976624 78.42710586 34.61035156 79.93041992 C38.5320095 81.39052544 41.33243688 82.79811186 43.89013672 86.16113281 C43.95263672 89.72363281 43.95263672 89.72363281 42.89013672 93.16113281 C39.01637102 96.79278816 34.0106896 97.14439898 28.89013672 97.16113281 C22.40106713 96.64648247 18.09764452 94.31225472 13.03076172 90.30566406 C10.91265589 88.92875601 10.91265589 88.92875601 8.30419922 89.34472656 C4.81556085 90.52454116 3.12297946 92.27157162 0.89013672 95.16113281 C0.87189256 97.6918287 0.87189256 97.6918287 1.89013672 100.16113281 C3.75823615 101.97919725 3.75823615 101.97919725 6.14013672 103.34863281 C6.90841797 103.8371875 7.67669922 104.32574219 8.46826172 104.82910156 C12.01229817 106.77832161 14.80982815 108.16113281 18.89013672 108.16113281 C18.72255859 108.85980469 18.55498047 109.55847656 18.38232422 110.27832031 C18.17865234 111.18839844 17.97498047 112.09847656 17.76513672 113.03613281 C17.45189453 114.39351562 17.45189453 114.39351562 17.13232422 115.77832031 C17.01244141 116.9578125 17.01244141 116.9578125 16.89013672 118.16113281 C18.74651493 120.4414093 18.74651493 120.4414093 21.64013672 120.42675781 C23.24888672 120.41902344 23.24888672 120.41902344 24.89013672 120.41113281 C25.96263672 120.41628906 27.03513672 120.42144531 28.14013672 120.42675781 C31.0337585 120.4414093 31.0337585 120.4414093 32.89013672 118.16113281 C33.34825347 116.18877948 33.34825347 116.18877948 33.51513672 114.03613281 C33.70076172 112.11800781 33.70076172 112.11800781 33.89013672 110.16113281 C35.18951172 110.07863281 36.48888672 109.99613281 37.82763672 109.91113281 C45.56450324 109.03526113 52.5387237 105.88590023 57.89013672 100.16113281 C61.15391626 94.2741286 62.7528459 88.84712894 61.89013672 82.16113281 C59.83842055 75.39046944 55.74079825 71.84022604 49.89013672 68.16113281 C46.5256906 66.51240168 43.08502347 65.16099081 39.57763672 63.84863281 C38.68496094 63.50251953 37.79228516 63.15640625 36.87255859 62.79980469 C33.56238338 61.52206211 30.25657005 60.28327726 26.89013672 59.16113281 C25.60442243 51.73256138 25.60442243 51.73256138 26.89013672 48.16113281 C35.30713787 45.66491433 43.83381447 46.15775999 51.64013672 50.09863281 C53.40366126 51.09592008 55.15724849 52.11151427 56.89013672 53.16113281 C57.55013672 53.49113281 58.21013672 53.82113281 58.89013672 54.16113281 C61.82214146 51.30837144 64.53329076 48.51033497 66.89013672 45.16113281 C62.65659825 40.2220046 57.7603804 37.83978769 51.89013672 35.16113281 C51.90173828 34.37867188 51.91333984 33.59621094 51.92529297 32.79003906 C51.93431641 31.778125 51.94333984 30.76621094 51.95263672 29.72363281 C51.96423828 28.71429688 51.97583984 27.70496094 51.98779297 26.66503906 C52.17626348 24.22092214 52.17626348 24.22092214 50.89013672 23.16113281 C48.91300865 23.06213082 46.93223634 23.03142508 44.95263672 23.03613281 C43.87111328 23.03355469 42.78958984 23.03097656 41.67529297 23.02832031 C38.93354009 22.97105492 38.93354009 22.97105492 36.89013672 24.16113281 Z " fill="#50B749" transform="translate(79.10986328125,40.8388671875)"/>
<path d="M0 0 C1.21563377 -0.00021904 1.21563377 -0.00021904 2.45582581 -0.0004425 C5.11787654 0.00025068 7.77985612 0.00801516 10.44189453 0.01586914 C12.29419924 0.01773543 14.14650444 0.01915834 15.99880981 0.02015686 C20.86166764 0.02396542 25.72449534 0.03378147 30.58734131 0.04486084 C35.55447991 0.05511073 40.52162339 0.05966214 45.48876953 0.06469727 C55.22576189 0.07540527 64.96273195 0.09246168 74.69970703 0.11352539 C74.69970703 0.44352539 74.69970703 0.77352539 74.69970703 1.11352539 C73.68794907 1.12161224 72.6761911 1.1296991 71.6337738 1.13803101 C62.08506624 1.21561563 52.53649901 1.30338586 42.98797512 1.40105247 C38.07933296 1.45093497 33.17071149 1.49726565 28.26196289 1.53540039 C23.52212337 1.57235492 18.78246033 1.61874232 14.04277229 1.6715889 C12.23717415 1.69007889 10.43153825 1.70520663 8.6258831 1.71686935 C6.09098224 1.73382443 3.55648081 1.76288117 1.02172852 1.79467773 C-0.09066193 1.79791801 -0.09066193 1.79791801 -1.2255249 1.80122375 C-11.05630921 1.95809684 -18.56763765 5.22955427 -25.68701172 11.80883789 C-27.30029297 13.11352539 -27.30029297 13.11352539 -30.30029297 14.11352539 C-31.51899226 16.61800055 -31.51899226 16.61800055 -32.30029297 19.11352539 C-32.96029297 19.11352539 -33.62029297 19.11352539 -34.30029297 19.11352539 C-34.09404297 20.18602539 -33.88779297 21.25852539 -33.67529297 22.36352539 C-33.30029297 26.11352539 -33.30029297 26.11352539 -34.26266479 27.83758545 C-35.81075165 31.23316856 -35.56148959 34.61692522 -35.52734375 38.27856445 C-35.52778183 39.5083905 -35.52778183 39.5083905 -35.52822876 40.76306152 C-35.52683728 43.46853276 -35.51128467 46.17372736 -35.49560547 48.87915039 C-35.49187469 50.75673268 -35.48902802 52.63431692 -35.48703003 54.51190186 C-35.47939868 59.45045357 -35.45975442 64.3888874 -35.43762207 69.32739258 C-35.41715295 74.36806646 -35.40802603 79.40875941 -35.39794922 84.44946289 C-35.3765081 94.33753548 -35.34237811 104.22552063 -35.30029297 114.11352539 C-33.98029297 114.44352539 -32.66029297 114.77352539 -31.30029297 115.11352539 C-32.29029297 116.43352539 -33.28029297 117.75352539 -34.30029297 119.11352539 C-33.64029297 120.10352539 -32.98029297 121.09352539 -32.30029297 122.11352539 C-32.96029297 122.11352539 -33.62029297 122.11352539 -34.30029297 122.11352539 C-33.97029297 123.76352539 -33.64029297 125.41352539 -33.30029297 127.11352539 C-38.64427119 121.52663907 -38.59962757 112.88483212 -38.57495117 105.57128906 C-38.5800621 104.76995041 -38.58517303 103.96861176 -38.59043884 103.14299011 C-38.60421517 100.52241314 -38.60338694 97.90210278 -38.60107422 95.28149414 C-38.60496816 93.43980311 -38.60930425 91.59811296 -38.61405945 89.75642395 C-38.62149632 85.90594567 -38.62124915 82.05555911 -38.6159668 78.20507812 C-38.61018041 73.29974253 -38.6270955 68.39478553 -38.65031147 63.48951244 C-38.66513003 59.68795114 -38.66590944 55.88647926 -38.66280174 52.08489418 C-38.66331104 50.27780725 -38.66847421 48.47071479 -38.67861366 46.66365623 C-38.75111163 31.93580268 -38.38863127 19.47920735 -27.63623047 8.39868164 C-19.75870971 1.04273189 -10.46456775 -0.0498622 0 0 Z " fill="#59A453" transform="translate(79.30029296875,40.886474609375)"/>
<path d="M0 0 C1.21563377 -0.00021904 1.21563377 -0.00021904 2.45582581 -0.0004425 C5.11787654 0.00025068 7.77985612 0.00801516 10.44189453 0.01586914 C12.29419924 0.01773543 14.14650444 0.01915834 15.99880981 0.02015686 C20.86166764 0.02396542 25.72449534 0.03378147 30.58734131 0.04486084 C35.55447991 0.05511073 40.52162339 0.05966214 45.48876953 0.06469727 C55.22576189 0.07540527 64.96273195 0.09246168 74.69970703 0.11352539 C74.69970703 0.44352539 74.69970703 0.77352539 74.69970703 1.11352539 C73.68794907 1.12161224 72.6761911 1.1296991 71.6337738 1.13803101 C62.08506624 1.21561563 52.53649901 1.30338586 42.98797512 1.40105247 C38.07933296 1.45093497 33.17071149 1.49726565 28.26196289 1.53540039 C23.52212337 1.57235492 18.78246033 1.61874232 14.04277229 1.6715889 C12.23717415 1.69007889 10.43153825 1.70520663 8.6258831 1.71686935 C6.09098224 1.73382443 3.55648081 1.76288117 1.02172852 1.79467773 C-0.09066193 1.79791801 -0.09066193 1.79791801 -1.2255249 1.80122375 C-11.05630921 1.95809684 -18.56763765 5.22955427 -25.68701172 11.80883789 C-27.30029297 13.11352539 -27.30029297 13.11352539 -30.30029297 14.11352539 C-31.51899226 16.61800055 -31.51899226 16.61800055 -32.30029297 19.11352539 C-32.96029297 19.11352539 -33.62029297 19.11352539 -34.30029297 19.11352539 C-34.96029297 20.43352539 -35.62029297 21.75352539 -36.30029297 23.11352539 C-35.87891272 16.37144147 -30.66943664 11.17521291 -25.92529297 6.80102539 C-18.3971645 0.68545966 -9.40331932 -0.0448055 0 0 Z " fill="#6AA462" transform="translate(79.30029296875,40.886474609375)"/>
<path d="M0 0 C0.33 0 0.66 0 1 0 C1.0697924 10.61456479 1.12295891 21.22907416 1.15543652 31.84382248 C1.17103134 36.77373158 1.19215547 41.70348262 1.22631836 46.63330078 C1.25913384 51.39900496 1.27689941 56.16455799 1.28463173 60.93036652 C1.29013568 62.74026109 1.30088252 64.55014825 1.31719017 66.35997772 C1.55098581 93.40483441 1.55098581 93.40483441 -7 103 C-7.66 103 -8.32 103 -9 103 C-9.495 103.99 -9.495 103.99 -10 105 C-10.66 104.67 -11.32 104.34 -12 104 C-11.1875 102.0625 -11.1875 102.0625 -10 100 C-8.515 99.505 -8.515 99.505 -7 99 C-3.6478927 93.71754125 -2.44740931 88.15187805 -2 82 C-1.34 82 -0.68 82 0 82 C-0.01474869 80.98744644 -0.02949738 79.97489288 -0.04469299 78.93165588 C-0.18271685 69.41068863 -0.3154574 59.88966058 -0.4429636 50.36854649 C-0.50869447 45.47311296 -0.57631674 40.5777205 -0.64819336 35.68237305 C-0.71742987 30.96217453 -0.78178723 26.24193287 -0.84269524 21.5216198 C-0.86685674 19.71658836 -0.89280614 17.91157998 -0.92053413 16.10659981 C-0.95893393 13.58746069 -0.99109805 11.0683161 -1.02172852 8.54907227 C-1.03467453 7.79525772 -1.04762054 7.04144318 -1.06095886 6.26478577 C-1.07904876 4.50983278 -1.04518348 2.7544645 -1 1 C-0.67 0.67 -0.34 0.34 0 0 Z " fill="#529A4F" transform="translate(183,71)"/>
<path d="M0 0 C2.43868168 -0.1079859 4.87259133 -0.18726589 7.3125 -0.25 C8.00279297 -0.28351562 8.69308594 -0.31703125 9.40429688 -0.3515625 C12.64499799 -0.41418474 14.50822084 -0.41612083 17.03125 1.71875 C18.22850011 4.53808091 18.00432061 5.82664202 17.1875 8.75 C16.97480469 9.54921875 16.76210937 10.3484375 16.54296875 11.171875 C16.36378906 11.77515625 16.18460938 12.3784375 16 13 C16.92039063 12.52433594 16.92039063 12.52433594 17.859375 12.0390625 C19.90994021 11.04371515 21.77922017 10.47588139 24 10 C24 11.98 24 13.96 24 16 C24.99 16.33 25.98 16.66 27 17 C27 17.66 27 18.32 27 19 C27.804375 19.12375 28.60875 19.2475 29.4375 19.375 C30.7059375 19.684375 30.7059375 19.684375 32 20 C33 22 33 22 32.1875 24.5 C31 27 31 27 29 29 C28.01 29 27.02 29 26 29 C26.309375 28.4225 26.61875 27.845 26.9375 27.25 C27.92583364 25.15705816 28.5168613 23.25464725 29 21 C28.45859375 20.73445313 27.9171875 20.46890625 27.359375 20.1953125 C24.62474418 18.80988695 21.93875859 17.34741542 19.25 15.875 C17.77273437 15.06675781 17.77273437 15.06675781 16.265625 14.2421875 C15.51796875 13.83226563 14.7703125 13.42234375 14 13 C14 9.37 14 5.74 14 2 C9.71 2 5.42 2 1 2 C0.67 1.34 0.34 0.68 0 0 Z " fill="#66AC5D" transform="translate(116,63)"/>
<path d="M0 0 C-1.19625 0.474375 -2.3925 0.94875 -3.625 1.4375 C-4.29789062 1.70433594 -4.97078125 1.97117188 -5.6640625 2.24609375 C-11.14143068 4.01387311 -16.59335977 4.14071813 -22.30029297 4.11352539 C-23.11071548 4.11367142 -23.921138 4.11381744 -24.75611877 4.1139679 C-27.4181695 4.11327471 -30.08014909 4.10551023 -32.7421875 4.09765625 C-34.59449221 4.09578996 -36.44679741 4.09436705 -38.29910278 4.09336853 C-43.1619606 4.08955997 -48.02478831 4.07974392 -52.88763428 4.06866455 C-57.85477288 4.05841466 -62.82191636 4.05386325 -67.7890625 4.04882812 C-77.52605486 4.03812012 -87.26302492 4.02106371 -97 4 C-96.67 3.34 -96.34 2.68 -96 2 C-95.00441574 2.00222061 -94.00883148 2.00444122 -92.983078 2.00672913 C-83.60983025 2.02698317 -74.23658692 2.04198308 -64.86332226 2.05181217 C-60.04420753 2.05703523 -55.22511044 2.06412245 -50.40600586 2.07543945 C-45.75706623 2.08628877 -41.10814359 2.09228119 -36.45919228 2.09487724 C-34.6837468 2.09672779 -32.90830227 2.10034134 -31.132864 2.10573006 C-28.64999747 2.11296758 -26.16720152 2.11398979 -23.68432617 2.11352539 C-22.94705292 2.11712067 -22.20977966 2.12071594 -21.45016479 2.12442017 C-18.35416934 2.11813605 -15.96156228 1.98718743 -13 1 C-11.33888797 0.60111455 -9.67142485 0.22818799 -8 -0.125 C-7.13375 -0.31320313 -6.2675 -0.50140625 -5.375 -0.6953125 C-3 -1 -3 -1 0 0 Z " fill="#5EA654" transform="translate(168,180)"/>
<path d="M0 0 C0.33 0 0.66 0 1 0 C1.07654536 4.51617599 1.10228696 8.59085217 0 13 C-0.66 13 -1.32 13 -2 13 C-2.061875 13.556875 -2.12375 14.11375 -2.1875 14.6875 C-3.55345862 18.57522838 -6.24977252 21.08683784 -9.88671875 22.984375 C-11.56977443 23.70812308 -13.28319813 24.36040714 -15 25 C-15 24.01 -15 23.02 -15 22 C-13.171875 20.640625 -13.171875 20.640625 -10.75 19.25 C-4.4589897 15.23046909 -2.4003055 11.22505042 -0.75 4.0625 C-0.48818994 2.71056699 -0.23386731 1.35704585 0 0 Z " fill="#5CA757" transform="translate(141,126)"/>
<path d="M0 0 C6.34145908 0.06530854 10.99671518 1.15083122 16.4375 4.375 C15.4475 4.705 14.4575 5.035 13.4375 5.375 C12.4475 5.87 12.4475 5.87 11.4375 6.375 C10.4475 6.375 9.4575 6.375 8.4375 6.375 C7.7775 5.055 7.1175 3.735 6.4375 2.375 C1.4875 2.375 -3.4625 2.375 -8.5625 2.375 C-5.76119753 -0.42630247 -3.91197421 0.04220037 0 0 Z " fill="#57A650" transform="translate(116.5625,86.625)"/>
<path d="M0 0 C2.07944578 4.15889157 -0.62074494 9.79405871 -2 14 C-3.39443638 16.87629824 -4.86560823 19.60497294 -7 22 C-7.66 22 -8.32 22 -9 22 C-9.33 22.66 -9.66 23.32 -10 24 C-10.66 23.67 -11.32 23.34 -12 23 C-11.1875 21.0625 -11.1875 21.0625 -10 19 C-9.01 18.67 -8.02 18.34 -7 18 C-4.37235986 13.85920157 -2.86738594 9.36231112 -2.375 4.5 C-2.25125 3.345 -2.1275 2.19 -2 1 C-1.34 0.67 -0.68 0.34 0 0 Z " fill="#62A85C" transform="translate(183,152)"/>
<path d="M0 0 C8.81123127 1.07892628 13.88460808 2.20970658 19.8125 8.9296875 C21 11 21 11 20.6875 13.2578125 C20.3471875 14.12019531 20.3471875 14.12019531 20 15 C19.505 14.113125 19.01 13.22625 18.5 12.3125 C14.23430613 5.94399929 6.99065635 3.37182983 0 1 C0 0.67 0 0.34 0 0 Z " fill="#5EA456" transform="translate(119,105)"/>
<path d="M0 0 C1.32 0 2.64 0 4 0 C6.625 2.875 6.625 2.875 9 6 C11.22189824 8.22189824 13.08482708 8.92598892 16 10 C16 10.66 16 11.32 16 12 C18.64 12.33 21.28 12.66 24 13 C24 13.33 24 13.66 24 14 C15.02944722 13.71522055 9.4029195 10.43212917 3 4.25 C1 2 1 2 0 0 Z " fill="#62A85D" transform="translate(46,169)"/>
<path d="M0 0 C-1.19625 0.474375 -2.3925 0.94875 -3.625 1.4375 C-4.29789063 1.70433594 -4.97078125 1.97117188 -5.6640625 2.24609375 C-10.4174525 3.7802146 -15.0851338 4.12327251 -20.0546875 4.09765625 C-21.16328125 4.09443359 -22.271875 4.09121094 -23.4140625 4.08789062 C-24.55617187 4.07951172 -25.69828125 4.07113281 -26.875 4.0625 C-28.0403125 4.05798828 -29.205625 4.05347656 -30.40625 4.04882812 C-33.27088645 4.03708781 -36.13541633 4.0206657 -39 4 C-39 3.67 -39 3.34 -39 3 C-37.97845825 2.96241577 -37.97845825 2.96241577 -36.9362793 2.92407227 C-33.85316245 2.80809048 -30.77034954 2.68537384 -27.6875 2.5625 C-26.61564453 2.52318359 -25.54378906 2.48386719 -24.43945312 2.44335938 C-23.41142578 2.40146484 -22.38339844 2.35957031 -21.32421875 2.31640625 C-20.37635498 2.27974854 -19.42849121 2.24309082 -18.4519043 2.20532227 C-15.863829 2.08569813 -15.863829 2.08569813 -13 1 C-11.33888797 0.60111455 -9.67142485 0.22818799 -8 -0.125 C-7.13375 -0.31320313 -6.2675 -0.50140625 -5.375 -0.6953125 C-3 -1 -3 -1 0 0 Z " fill="#67AA62" transform="translate(168,180)"/>
<path d="M0 0 C0.4846875 0.32613281 0.969375 0.65226563 1.46875 0.98828125 C6.17937005 4.05924317 10.67544916 6.19345596 16 8 C15.67 11.63 15.34 15.26 15 19 C14.34 19 13.68 19 13 19 C13.33 15.7 13.66 12.4 14 9 C12.35 9 10.7 9 9 9 C6.796875 7.79296875 6.796875 7.79296875 4.75 6.1875 C3.72132812 5.40439453 3.72132812 5.40439453 2.671875 4.60546875 C1 3 1 3 0 0 Z " fill="#68A662" transform="translate(82,141)"/>
<path d="M0 0 C3.25397925 1.26080491 6.50239437 2.53537685 9.75 3.8125 C10.67039062 4.16892578 11.59078125 4.52535156 12.5390625 4.89257812 C13.87324219 5.41948242 13.87324219 5.41948242 15.234375 5.95703125 C16.45979004 6.43619995 16.45979004 6.43619995 17.70996094 6.92504883 C20.0776142 8.03643234 21.96855784 9.36220075 24 11 C23.67 11.66 23.34 12.32 23 13 C22.38125 12.5875 21.7625 12.175 21.125 11.75 C17.70147421 9.83282556 14.23323628 8.46856551 10.58203125 7.05078125 C6.93999172 5.56861993 3.48963915 3.80944252 0 2 C0 1.34 0 0.68 0 0 Z " fill="#58A153" transform="translate(99,114)"/>
<path d="M0 0 C2.43868168 -0.1079859 4.87259133 -0.18726589 7.3125 -0.25 C8.00279297 -0.28351562 8.69308594 -0.31703125 9.40429688 -0.3515625 C12.61350868 -0.41357625 14.49754899 -0.42394304 17 1.6875 C18.22543402 4.52131616 18.1275148 6.20989776 17.6875 9.25 C17.56761719 10.14203125 17.44773438 11.0340625 17.32421875 11.953125 C17.21722656 12.62859375 17.11023438 13.3040625 17 14 C16.01 13.67 15.02 13.34 14 13 C14 9.37 14 5.74 14 2 C9.71 2 5.42 2 1 2 C0.67 1.34 0.34 0.68 0 0 Z " fill="#5DA458" transform="translate(116,63)"/>
<path d="M0 0 C0.78375 0.00451172 1.5675 0.00902344 2.375 0.01367188 C4.29170014 0.02535907 6.20836048 0.04329092 8.125 0.0625 C8.125 0.3925 8.125 0.7225 8.125 1.0625 C7.05121094 1.11148438 5.97742188 1.16046875 4.87109375 1.2109375 C3.43487358 1.28603398 1.99867681 1.36157876 0.5625 1.4375 C-0.14197266 1.4684375 -0.84644531 1.499375 -1.57226562 1.53125 C-6.263201 1.79065656 -10.36909638 2.63274212 -14.875 4.0625 C-16.3518485 4.44652802 -17.83058304 4.8235204 -19.3125 5.1875 C-21.0759375 5.620625 -21.0759375 5.620625 -22.875 6.0625 C-22.875 5.4025 -22.875 4.7425 -22.875 4.0625 C-15.07589775 0.96975256 -8.36313162 -0.0921362 0 0 Z " fill="#619F5D" transform="translate(79.875,40.9375)"/>
<path d="M0 0 C4.71046098 4.0681254 5.29822868 9.03494376 6 15 C5.01 15.66 4.02 16.32 3 17 C2.34 15.68 1.68 14.36 1 13 C1.33 12.67 1.66 12.34 2 12 C2.07148199 10.64756083 2.08399454 9.29165633 2.0625 7.9375 C2.041875 6.638125 2.02125 5.33875 2 4 C1.34 4 0.68 4 0 4 C0 2.68 0 1.36 0 0 Z " fill="#69AE65" transform="translate(178,56)"/>
<path d="M0 0 C0 3 0 3 -2.25 5.625 C-4.72881204 7.76579221 -5.83568489 8.64840943 -9 9 C-9 8.01 -9 7.02 -9 6 C-7.03125 4.39453125 -7.03125 4.39453125 -4.5 2.8125 C-3.6646875 2.28269531 -2.829375 1.75289062 -1.96875 1.20703125 C-1.3190625 0.80871094 -0.669375 0.41039062 0 0 Z " fill="#57A250" transform="translate(135,142)"/>
<path d="M0 0 C1.98 0.495 1.98 0.495 4 1 C3.01 2.32 2.02 3.64 1 5 C1.99 6.485 1.99 6.485 3 8 C2.34 8 1.68 8 1 8 C1.33 9.65 1.66 11.3 2 13 C0.4375 11.5625 0.4375 11.5625 -1 9 C-0.96846324 5.94619073 -0.53266629 3.00346778 0 0 Z " fill="#5CB057" transform="translate(44,155)"/>
<path d="M0 0 C2.475 0.99 2.475 0.99 5 2 C5 2.66 5 3.32 5 4 C5.56589844 4.12117188 6.13179688 4.24234375 6.71484375 4.3671875 C7.44832031 4.53476563 8.18179688 4.70234375 8.9375 4.875 C9.66839844 5.03742188 10.39929688 5.19984375 11.15234375 5.3671875 C13 6 13 6 14 8 C9.30943359 7.4136792 4.91031269 5.64951093 1 3 C0.67 2.01 0.34 1.02 0 0 Z " fill="#5EA459" transform="translate(105,97)"/>
<path d="M0 0 C3.98175544 2.10148204 6.35039045 4.36905358 9 8 C8.67 8.66 8.34 9.32 8 10 C4.20401451 8.50871999 2.28279601 6.34266559 0 3 C0 2.01 0 1.02 0 0 Z " fill="#61A95B" transform="translate(169,46)"/>
<path d="M0 0 C1.98 0.495 1.98 0.495 4 1 C4 2.32 4 3.64 4 5 C2 6.75 2 6.75 0 8 C-0.98120464 4.94736336 -0.98120464 3.05263664 0 0 Z " fill="#5DA757" transform="translate(113,151)"/>
<path d="M0 0 C-2.97 2.475 -2.97 2.475 -6 5 C-6.66 4.67 -7.32 4.34 -8 4 C-5.97675095 -0.48005146 -4.79569304 -1.43870791 0 0 Z " fill="#58AA50" transform="translate(60,47)"/>
<path d="M0 0 C-0.33 0.66 -0.66 1.32 -1 2 C-3.06640625 2.4140625 -3.06640625 2.4140625 -5.5625 2.625 C-6.38878906 2.69976562 -7.21507813 2.77453125 -8.06640625 2.8515625 C-9.02353516 2.92503906 -9.02353516 2.92503906 -10 3 C-10 2.34 -10 1.68 -10 1 C-6.52674819 -0.1577506 -3.63932552 -0.06866652 0 0 Z " fill="#6FB46A" transform="translate(118,136)"/>
<path d="M0 0 C0.66 0.33 1.32 0.66 2 1 C2 1.99 2 2.98 2 4 C-0.375 5.0625 -0.375 5.0625 -3 6 C-3.66 5.67 -4.32 5.34 -5 5 C-5 4.34 -5 3.68 -5 3 C-2.625 1.3125 -2.625 1.3125 0 0 Z " fill="#6AB966" transform="translate(138,73)"/>
</svg>
